<svg width="203" height="50" viewBox="0 0 203 50" fill="none" xmlns="http://www.w3.org/2000/svg">
<path d="M42.5685 40.1924H45.9801C48.027 40.1924 49.3697 41.2709 49.3697 43.0757C49.3697 45.0346 47.7409 46.0471 45.804 46.0471H43.4929V49.2606H42.4805L42.5685 40.1924ZM45.826 45.1447C47.3447 45.1447 48.3352 44.3303 48.3352 43.1417C48.3352 41.8431 47.3667 41.1608 45.892 41.1608H43.4929V45.1667L45.826 45.1447Z" fill="white"/>
<path d="M51.1074 40.1913H55.0252C55.9761 40.1377 56.9097 40.462 57.6224 41.0937C58.0839 41.5713 58.3372 42.2124 58.3268 42.8765C58.3231 43.546 58.0674 44.1896 57.6105 44.6791C57.1537 45.1685 56.5293 45.4679 55.8616 45.5177L58.6569 49.2375H57.3803L54.7391 45.7158H52.1419V49.2375H51.1074V40.1913ZM54.9372 44.8134C56.3018 44.8134 57.2923 44.1091 57.2923 42.9646C57.2923 41.864 56.4119 41.1817 54.9372 41.1817H52.1419V44.8574L54.9372 44.8134Z" fill="white"/>
<path d="M60.3945 40.1924H66.9756V41.1168H61.407V44.2202H66.3813V45.1667H61.407V48.3582H67.0416V49.2826H60.3945V40.1924Z" fill="white"/>
<path d="M68.9795 40.1924H70.014L73.3375 45.1447L76.661 40.1924H77.6955V49.2826H76.661V41.9092L73.3375 46.7954H73.2935L69.9699 41.9312V49.2826H68.9795V40.1924Z" fill="white"/>
<path d="M81.262 40.1924H80.2275V49.3046H81.262V40.1924Z" fill="white"/>
<path d="M83.6377 45.4748V40.1924H84.6722V45.4088C84.6119 45.8065 84.6417 46.2126 84.7594 46.5972C84.8771 46.9819 85.0798 47.3351 85.3523 47.6309C85.6249 47.9267 85.9604 48.1575 86.3341 48.3062C86.7079 48.455 87.1102 48.5178 87.5115 48.4902C89.2063 48.4902 90.2628 47.4557 90.2628 45.4748V40.1924H91.2972V45.3868C91.3371 45.9097 91.2685 46.4352 91.0957 46.9303C90.923 47.4255 90.6498 47.8796 90.2934 48.2643C89.9369 48.6489 89.5049 48.9558 89.0243 49.1657C88.5437 49.3755 88.0249 49.4838 87.5005 49.4838C86.9761 49.4838 86.4573 49.3755 85.9767 49.1657C85.4961 48.9558 85.064 48.6489 84.7076 48.2643C84.3511 47.8796 84.078 47.4255 83.9052 46.9303C83.7325 46.4352 83.6639 45.9097 83.7037 45.3868" fill="white"/>
<path d="M93.5215 40.1924H94.578L97.9015 45.1447L101.203 40.1924H102.238V49.2826H101.225V41.9092L97.9015 46.7954H97.8575L94.534 41.9312V49.2826H93.5215V40.1924Z" fill="white"/>
<path d="M107.717 44.77C107.717 43.4857 108.227 42.2541 109.135 41.346C110.043 40.4379 111.275 39.9277 112.559 39.9277C113.843 39.9277 115.075 40.4379 115.983 41.346C116.891 42.2541 117.401 43.4857 117.401 44.77C117.402 45.4027 117.275 46.029 117.029 46.6119C116.783 47.1948 116.422 47.7225 115.969 48.1637C115.515 48.6049 114.978 48.9507 114.389 49.1806C113.799 49.4105 113.17 49.5198 112.537 49.5022C111.91 49.5229 111.284 49.4168 110.699 49.1902C110.113 48.9636 109.58 48.6212 109.13 48.1835C108.68 47.7458 108.322 47.2218 108.08 46.6428C107.837 46.0638 107.714 45.4418 107.717 44.814M115.288 44.814C115.3 44.4443 115.238 44.076 115.105 43.7308C114.972 43.3855 114.772 43.0703 114.516 42.8037C114.259 42.5371 113.952 42.3244 113.612 42.1783C113.273 42.0321 112.907 41.9554 112.537 41.9527C112.169 41.9524 111.805 42.0264 111.467 42.1704C111.128 42.3144 110.822 42.5254 110.567 42.7906C110.312 43.0558 110.114 43.3698 109.983 43.7137C109.853 44.0576 109.793 44.4244 109.808 44.792C109.793 45.1624 109.853 45.5321 109.985 45.8787C110.116 46.2253 110.317 46.5417 110.574 46.809C110.831 47.0762 111.139 47.2888 111.48 47.4339C111.821 47.579 112.188 47.6536 112.559 47.6533C112.925 47.6535 113.287 47.5801 113.624 47.4375C113.961 47.2948 114.266 47.0859 114.521 46.8231C114.775 46.5602 114.975 46.2489 115.106 45.9075C115.238 45.5661 115.3 45.2018 115.288 44.836" fill="white"/>
<path d="M118.899 45.3868V40.1924H120.902V45.3428C120.902 46.8174 121.65 47.5438 122.861 47.5438C124.071 47.5438 124.842 46.7954 124.842 45.3428V40.1924H126.844V45.3208C126.913 45.8681 126.858 46.4239 126.682 46.9469C126.507 47.47 126.216 47.9468 125.832 48.3422C125.447 48.7375 124.978 49.0411 124.46 49.2306C123.942 49.4201 123.388 49.4905 122.839 49.4367C122.298 49.4907 121.753 49.4222 121.242 49.2361C120.732 49.05 120.271 48.7512 119.892 48.3619C119.513 47.9727 119.227 47.503 119.055 46.9879C118.883 46.4727 118.83 45.9255 118.899 45.3868Z" fill="white"/>
<path d="M130.873 42.0412H128.1V40.1924H135.627V42.0412H132.876V49.2826H130.873V42.0412Z" fill="white"/>
<path d="M137.035 40.1924H139.038V47.4557H143.572V49.2826H137.035V40.1924Z" fill="white"/>
<path d="M144.957 40.1924H151.824V41.9752H146.96V43.8241H151.252V45.5849H146.96V47.4998H151.89V49.2826H144.957V40.1924Z" fill="white"/>
<path d="M155.678 42.0412H152.904V40.1924H160.454V42.0412H157.681V49.2826H155.678V42.0412Z" fill="white"/>
<path d="M188.099 17.2798H191.73L189.947 12.3936L188.099 17.2798Z" fill="white"/>
<path d="M176.808 26.2802H203V0H176.808V26.2802ZM193.799 22.9346L193.029 20.9317H186.8L186.052 22.9346H181.804L189.706 3.43359H190.102L198.025 22.9346H193.799Z" fill="white"/>
<path d="M29.4707 26.2802H55.6628V0H29.4707V26.2802ZM47.8932 22.7805H37.3063V3.38957H41.2902V18.9067H47.8932V22.7805Z" fill="white"/>
<path d="M72.1056 7.08887C64.358 7.08887 64.358 19.0624 72.1056 19.0624C79.8532 19.0624 79.8532 7.08887 72.1056 7.08887Z" fill="white"/>
<path d="M58.8984 26.2802H85.0906V0H58.8984V26.2802ZM72.1045 23.0667C58.7664 23.0667 58.7664 3.10344 72.1045 3.10344C85.4427 3.10344 85.4427 23.0667 72.1045 23.0667Z" fill="white"/>
<path d="M88.415 26.2802H114.607V0H88.415V26.2802ZM104.13 22.8686L100.235 15.2751H98.3636V22.6925H94.4898V7.7916L98.3636 8.95815V11.5994H101.775C102.359 11.5994 102.919 11.3675 103.332 10.9547C103.744 10.5419 103.976 9.98209 103.976 9.39835C103.976 8.8146 103.744 8.25476 103.332 7.84199C102.919 7.42922 102.359 7.19733 101.775 7.19733H94.4898V3.38957H102.127C109.039 3.38957 109.721 13.1181 104.02 14.7688L108.422 22.7805L104.13 22.8686Z" fill="white"/>
<path d="M117.885 26.2802H144.077V0H117.885V26.2802ZM132.918 22.8686H129.044V3.38957H132.918V22.8686Z" fill="white"/>
<path d="M147.358 26.2802H173.55V0H147.358V26.2802ZM158.495 22.8686H152.728V7.83563L156.602 8.98016V18.9067H158.495C166.045 18.9067 166.045 7.28537 158.495 7.28537H152.728V3.38957H158.495C171.393 3.38957 171.393 22.7805 158.495 22.7805" fill="white"/>
<path d="M0 26.2802H26.1701V0H0V26.2802ZM17.6081 15.099H11.5994V22.7585H7.72557V7.7916L11.5994 8.84809V11.0491H17.5861L17.6081 15.099ZM18.4665 7.37341H7.72557V3.41158H18.4445L18.4665 7.37341Z" fill="white"/>
</svg>
