<svg width="145" height="32" viewBox="0 0 145 32" fill="none" xmlns="http://www.w3.org/2000/svg">
<g clip-path="url(#clip0_8656_17582)">
<path d="M63.9751 28.9991V2.95703H56.6822V17.0337L45.5524 2.95703H38.7588V28.9991H46.0567V14.9818L57.4189 28.9991H63.9751Z" fill="#404041"/>
<path d="M97.1219 1.78027H90.175V28.9941H97.1219V1.78027Z" fill="#404041"/>
<path d="M113.765 10.0077L113.424 9.97805C111.748 9.81983 110.264 9.74566 108.984 9.74566C106.101 9.74566 103.851 10.6159 102.151 12.3909C100.45 14.1709 99.5696 16.5145 99.4905 19.5108C99.4905 22.9224 100.761 25.7407 102.551 27.229C104.425 28.7568 106.586 29.5479 108.746 29.5479C110.907 29.5479 114.828 29.2463 120.746 28.6727V1.78027H113.765V10.0077ZM113.765 23.7877L113.488 23.8124C111.911 23.9657 110.897 24.0448 110.398 24.0497H110.388C109.127 24.0497 108.049 23.5949 107.293 22.7939C106.541 21.9929 106.126 20.8557 106.126 19.5405C106.126 18.1659 106.526 17.0238 107.288 16.2228C108.049 15.4218 109.152 14.9916 110.472 14.9966C111.199 14.9966 112.198 15.0757 113.498 15.2784L113.765 15.318V23.7926V23.7877Z" fill="#404041"/>
<path d="M133.602 9.62646C130.408 9.62646 127.871 10.5412 125.849 12.3656C123.876 14.1901 122.897 16.5535 122.892 19.5449C122.897 22.5807 123.881 24.9837 125.849 26.8477C127.871 28.7118 130.408 29.6265 133.602 29.6265C136.796 29.6265 139.327 28.7118 141.31 26.8527C143.283 24.9886 144.267 22.5807 144.267 19.5498C144.267 16.603 143.283 14.2346 141.31 12.4052C139.327 10.5461 136.796 9.63141 133.602 9.63141M136.707 22.739C135.931 23.5202 134.833 23.975 133.602 23.975C132.371 23.975 131.248 23.5449 130.462 22.7736C129.671 22.0022 129.211 20.8947 129.211 19.5844C129.211 18.2742 129.676 17.2457 130.462 16.4794C131.248 15.713 132.351 15.2729 133.602 15.2729C134.853 15.2729 135.926 15.713 136.707 16.4794C137.488 17.2457 137.953 18.3335 137.953 19.5844C137.953 20.8354 137.493 21.9627 136.707 22.739Z" fill="#404041"/>
<path d="M87.2583 29.0438V10.6705C81.7947 10.0623 77.8442 9.76074 75.3571 9.76074C72.5586 9.76074 70.3386 10.6705 68.6328 12.4455C66.9665 14.2305 66.0864 16.579 65.9678 19.5753C65.9727 26.6359 70.9517 29.6223 74.6897 29.6322C76.5883 29.6421 79.2879 28.6928 80.2966 26.2057V26.804L80.3015 29.0438H87.2533H87.2583ZM80.1977 22.5617C79.0259 23.5753 77.8887 24.0895 76.7366 24.0895C75.5549 24.0895 74.5117 23.6198 73.7749 22.8238C73.0432 22.0327 72.613 20.9202 72.613 19.6495C72.613 18.275 73.0135 17.113 73.7601 16.2923C74.5067 15.4764 75.5796 15.0166 76.8503 15.0166C77.4684 15.0166 78.482 15.0957 80.0197 15.2144L80.3065 15.2342V22.4579L80.1977 22.5518V22.5617Z" fill="#404041"/>
<path d="M15.9951 0C7.15946 0 0 7.15946 0 16C0 24.8405 7.15946 32 15.9951 32C24.8307 32 32.0049 24.8356 32.0049 16C32.0049 7.1644 24.8356 0 15.9951 0Z" fill="#F1000F"/>
<path d="M20.5583 23.8372C20.5583 24.1834 20.2765 24.4701 19.9304 24.4701C19.7079 24.4701 19.5101 24.3515 19.3964 24.1784L9.06264 9.75072C8.96869 9.637 8.91431 9.49856 8.91431 9.34034C8.91431 8.99423 9.19119 8.7124 9.54224 8.7124H19.9304C20.2765 8.7124 20.5583 8.99423 20.5583 9.34034V23.8372Z" fill="white"/>
</g>
<defs>
<clipPath id="clip0_8656_17582">
<rect width="144.267" height="32" fill="white"/>
</clipPath>
</defs>
</svg>
