<svg xmlns="http://www.w3.org/2000/svg" viewBox="0 0 123 44.2" style="width: 123px">
    <defs>
        <style type="text/css">
            .cls-1 {
                fill: #29488b;
                fill-rule: evenodd;
            }

            .cls-2 {
                fill: #eed733;
            }
        </style>
    </defs>
    <title>LogoRipsa</title>
    <g id="Capa_2" data-name="Capa 2">
        <g id="Capa_1-2" data-name="Capa 1">
            <path class="cls-1"
                d="M109.76.47h5.95a1.3,1.3,0,0,1,1.4,1.15L121.7,29a1.37,1.37,0,0,1-.21,1,1.08,1.08,0,0,1-.93.4h-4.94a1.19,1.19,0,0,1-1.36-1.14l-.72-4.6h-9.86l-2.34,4.6a1.75,1.75,0,0,1-1.62,1.14H94.54a.86.86,0,0,1-.85-.4,1.11,1.11,0,0,1,.12-1L108.1,1.61a2.27,2.27,0,0,1,.64-.89,1.67,1.67,0,0,1,1-.25m-3.65,18.19h7.08l-1.48-11h-.09Zm-12.62,2a8.82,8.82,0,0,1-3.66,7.67,15.51,15.51,0,0,1-9.27,2.62,29.2,29.2,0,0,1-5.67-.53A13.88,13.88,0,0,1,70.83,29a1,1,0,0,1-.47-1.53l1.78-3.23a1.27,1.27,0,0,1,1.71-.73,14.54,14.54,0,0,0,6.25,1.28,11.1,11.1,0,0,0,4.14-.74,2.58,2.58,0,0,0,1.85-2.49,2.21,2.21,0,0,0-1.15-1.87,17.71,17.71,0,0,0-3.53-1.66,16.93,16.93,0,0,1-5.48-3.15,6.46,6.46,0,0,1-2-5q0-5,3.4-7.47T86.39,0C90.07,0,92.94.57,95,1.7a1,1,0,0,1,.42,1.53L93.7,6.29A1.24,1.24,0,0,1,92,7a16.23,16.23,0,0,0-5.57-.89c-3.38,0-5.06,1-5.06,2.94a2.06,2.06,0,0,0,1,1.78,22.14,22.14,0,0,0,3.44,1.7c1.22.51,2.2,1,2.94,1.36a18.4,18.4,0,0,1,2.33,1.55,6,6,0,0,1,1.83,2.24,6.79,6.79,0,0,1,.6,2.93m-44,9.86H44.89c-.89,0-1.25-.4-1.08-1.21L48.63,1.71A1.25,1.25,0,0,1,50,.47h9.45q5.64,0,8.49,2t2.86,6.25a20.44,20.44,0,0,1-.21,2.6q-.93,5.77-4.36,8.29t-9.82,2.51H52.18l-1.29,7.17a1.31,1.31,0,0,1-1.37,1.24m3.75-14.54H57a7.53,7.53,0,0,0,4.38-1.06,5.26,5.26,0,0,0,1.91-3.61,9.51,9.51,0,0,0,.13-1.45,2.7,2.7,0,0,0-1.13-2.44,6.64,6.64,0,0,0-3.59-.75H54.93ZM30.65,29.25,35.47,1.69A1.25,1.25,0,0,1,36.83.47H41.7c.88,0,1.24.39,1.07,1.2L37.94,29.26a1.34,1.34,0,0,1-1.4,1.22H31.71c-.88,0-1.23-.41-1.06-1.23M8.31.47H18q11.4,0,11.39,8A18.86,18.86,0,0,1,29.16,11,10.63,10.63,0,0,1,21,19.92l4.72,9A1,1,0,0,1,25.77,30a1,1,0,0,1-.94.48H20.2a1.66,1.66,0,0,1-1.65-1l-4.31-8.6H10.67L9.19,29.24a1.33,1.33,0,0,1-1.38,1.24H3.18c-.89,0-1.25-.4-1.08-1.21L6.92,1.71A1.28,1.28,0,0,1,8.31.47m3.4,14.58h4a7.63,7.63,0,0,0,4.36-1,4.65,4.65,0,0,0,1.81-3.17A7.16,7.16,0,0,0,22,9.65a2.52,2.52,0,0,0-1.15-2.32,7.39,7.39,0,0,0-3.66-.7h-4Z">
            </path>
            <path class="cls-2"
                d="M122,35.88c-3.74-.08-7.49-.2-11.27-.28C72.39,34.8,36.15,35.25,4,36.71c-1,0-3.1.7-3.46,2.6S.4,39.87.06,41.8c-.4,2.61,1.23,2.45,2.09,2.37,33.32-3.15,74.54-5.89,119.9-4.94a.9.9,0,0,0,.91-.92l0-1.47s.12-.94-1-1">
            </path>
        </g>
    </g>
</svg>