<svg width="296" height="63" viewBox="0 0 296 63" fill="none" xmlns="http://www.w3.org/2000/svg">
<path fill-rule="evenodd" clip-rule="evenodd" d="M101.855 40.8622C95.3945 40.8622 94.4326 37.3296 94.4326 31.9566C94.4326 26.1788 95.1252 21.4316 101.97 21.4316C107.085 21.4316 108.893 23.2715 108.893 28.1662H104.355C104.355 26.4731 104.279 24.4122 101.97 24.4122C98.933 24.4122 99.2017 28.129 99.2017 30.9995C99.2017 34.275 98.933 37.8814 101.855 37.8814C104.239 37.8814 104.47 35.6734 104.47 33.8702H109.008C108.969 36.9246 108.469 40.8622 101.855 40.8622Z" fill="white"/>
<path fill-rule="evenodd" clip-rule="evenodd" d="M119.125 31.5162H118.36C116.061 31.5162 114.946 32.4766 114.946 34.9517C114.946 36.2817 115.26 37.8698 116.792 37.8698C118.812 37.8698 119.125 35.2101 119.125 33.6217V31.5162ZM119.405 40.4927L119.335 38.3875C118.36 40.0494 116.897 40.8622 114.946 40.8622C111.742 40.8622 110.628 38.3134 110.628 35.2842C110.628 29.2258 114.459 28.7824 119.125 28.7824V27.8226C119.125 26.3815 119.195 24.2756 117.314 24.2756C115.817 24.2756 115.329 25.384 115.329 26.7507V27.0461H111.08V26.7139C111.08 22.5023 114.215 21.4316 117.524 21.4316C121.877 21.4316 123.305 23.3525 123.305 27.7852V34.287C123.305 36.3555 123.34 38.4242 123.583 40.4927H119.405Z" fill="white"/>
<path fill-rule="evenodd" clip-rule="evenodd" d="M133.091 40.8622C129.585 40.8622 126.91 39.4555 126.838 35.5693C126.838 35.4957 126.802 34.9773 126.838 34.5702H131.284V35.1623C131.32 36.6061 131.609 37.9383 133.308 37.9383C134.645 37.9383 135.332 37.0871 135.332 35.7546C135.332 33.9411 134.32 33.5709 131.681 32.1647C128.428 30.462 127.018 29.685 127.018 26.724C127.018 22.9491 129.982 21.4316 133.453 21.4316C137.826 21.4316 139.597 23.2083 139.597 27.2052H135.187C135.187 26.8721 135.223 26.5761 135.187 26.2427C135.079 25.0957 134.718 24.0964 133.272 24.0964C132.116 24.0964 131.464 24.9473 131.464 26.0577C131.464 27.7233 132.802 28.1675 135.332 29.5368C138.043 30.9804 139.778 31.8684 139.778 35.1258C139.778 39.3076 136.778 40.8622 133.091 40.8622Z" fill="white"/>
<path fill-rule="evenodd" clip-rule="evenodd" d="M151.514 31.5162H150.749C148.45 31.5162 147.335 32.4766 147.335 34.9517C147.335 36.2817 147.648 37.8698 149.181 37.8698C151.202 37.8698 151.514 35.2101 151.514 33.6217V31.5162ZM151.793 40.4927L151.723 38.3875C150.749 40.0494 149.285 40.8622 147.335 40.8622C144.131 40.8622 143.017 38.3134 143.017 35.2842C143.017 29.2258 146.847 28.7824 151.514 28.7824V27.8226C151.514 26.3815 151.585 24.2756 149.704 24.2756C148.205 24.2756 147.718 25.384 147.718 26.7507V27.0461H143.468V26.7139C143.468 22.5023 146.604 21.4316 149.913 21.4316C154.266 21.4316 155.694 23.3525 155.694 27.7852V34.287C155.694 36.3555 155.729 38.4242 155.972 40.4927H151.793Z" fill="white"/>
<path fill-rule="evenodd" clip-rule="evenodd" d="M166.002 40.8622C159.84 40.8622 159.211 37.0207 159.211 31.4427C159.211 26.4555 159.526 21.4316 166.082 21.4316C170.753 21.4316 172.166 23.3893 172.166 27.4527H169.104C169.104 25.3472 168.672 23.5372 166.043 23.5372C162.391 23.5372 162.431 27.6376 162.431 31.1469C162.431 36.5033 163.059 38.72 165.925 38.72C168.633 38.72 169.065 36.7988 169.104 34.6565H172.166C172.166 38.0179 170.95 40.8622 166.002 40.8622Z" fill="white"/>
<path fill-rule="evenodd" clip-rule="evenodd" d="M185.224 31.0729H184.469C181.486 31.0729 178.501 31.6288 178.501 35.0774C178.501 36.8946 179.181 38.6744 181.297 38.6744C184.431 38.6744 185.224 35.7077 185.224 33.2976V31.0729ZM185.452 40.5282L185.414 38.0812C184.091 39.9719 182.694 40.8622 180.314 40.8622C176.914 40.8622 175.404 38.415 175.404 35.3368C175.404 29.4413 180.39 29.0703 185.224 29.0331V28.2175C185.224 25.9921 185.224 23.5451 182.279 23.5451C180.541 23.5451 179.106 24.5095 179.106 26.3634V26.549H176.121V26.3634C176.121 22.7295 179.03 21.4316 182.392 21.4316C186.924 21.4316 188.171 23.4711 188.171 27.6612V34.5583C188.171 36.5606 188.209 38.5262 188.36 40.5282H185.452Z" fill="white"/>
<path fill-rule="evenodd" clip-rule="evenodd" d="M211.294 40.8622V28.0719C211.294 25.9971 211.181 23.7329 208.659 23.7329C205.872 23.7329 205.308 26.676 205.308 28.9019V40.8622H202.331V27.9215C202.331 26.11 202.407 23.7329 199.734 23.7329C197.323 23.7329 196.344 26.3364 196.344 29.2036V40.8622H193.369V25.1294C193.369 24.0346 193.331 22.9408 193.218 21.8466H196.193V24.337C197.022 22.7144 198.642 21.4316 200.674 21.4316C203.574 21.4316 204.403 22.9029 204.893 24.337C205.759 22.8276 207.34 21.4316 209.6 21.4316C213.216 21.4316 214.27 23.7329 214.27 27.9215V40.8622H211.294Z" fill="white"/>
<path fill-rule="evenodd" clip-rule="evenodd" d="M227.33 31.0729H226.575C223.591 31.0729 220.607 31.6288 220.607 35.0774C220.607 36.8946 221.287 38.6744 223.403 38.6744C226.537 38.6744 227.33 35.7077 227.33 33.2976V31.0729ZM227.557 40.5282L227.519 38.0812C226.197 39.9719 224.8 40.8622 222.42 40.8622C219.021 40.8622 217.51 38.415 217.51 35.3368C217.51 29.4413 222.496 29.0703 227.33 29.0331V28.2175C227.33 25.9921 227.33 23.5451 224.383 23.5451C222.647 23.5451 221.212 24.5095 221.212 26.3634V26.549H218.227V26.3634C218.227 22.7295 221.136 21.4316 224.497 21.4316C229.03 21.4316 230.276 23.4711 230.276 27.6612V34.5583C230.276 36.5606 230.314 38.5262 230.465 40.5282H227.557Z" fill="white"/>
<path fill-rule="evenodd" clip-rule="evenodd" d="M242.778 24.2291C239.789 24.2291 238.465 26.2703 238.465 29.0678V40.8622H235.437V25.2878C235.437 24.4184 235.4 22.6416 235.324 21.8098H238.276V24.305C239.298 22.4151 240.962 21.4316 243.119 21.4316H243.421V24.305C243.194 24.2671 243.005 24.2291 242.778 24.2291Z" fill="white"/>
<path fill-rule="evenodd" clip-rule="evenodd" d="M254.97 30.1868C254.97 27.3789 255.117 23.5375 251.611 23.5375C247.92 23.5375 248.03 27.6744 248.03 30.2606V32.9203C248.03 35.4324 248.067 38.72 251.5 38.72C254.748 38.72 254.97 35.5802 254.97 33.0311V30.1868ZM251.463 40.8622C245.631 40.8622 245.041 37.0207 245.041 31.2948C245.041 25.9384 245.741 21.4316 251.685 21.4316C257.553 21.4316 257.997 25.3843 257.997 31.0364C257.997 37.1686 257.074 40.8622 251.463 40.8622Z" fill="white"/>
<path fill-rule="evenodd" clip-rule="evenodd" d="M272.817 40.8622V28.7133C272.817 26.4118 272.854 23.6953 269.862 23.6953C267.058 23.6953 265.998 26.8649 265.998 29.43V40.8622H263.005V25.9971C263.005 24.6003 262.967 23.2425 262.854 21.8466H265.808V24.4499C266.642 22.8654 268.346 21.4316 270.771 21.4316C274.597 21.4316 275.809 23.771 275.809 27.3552V40.8622H272.817Z" fill="white"/>
<path d="M31.485 4.00026C46.7407 3.93425 59.3236 16.541 58.9937 32.096C58.6747 47.0349 46.2787 59.3447 30.825 58.9926C15.9103 58.6516 3.61334 46.2429 4.0093 30.7539C4.38327 15.925 16.5812 3.95626 31.485 4.00026ZM6.13212 31.4909C6.18712 45.4508 17.4062 56.8475 31.507 56.8475C45.6078 56.8475 56.8598 45.4508 56.8598 31.4909C56.8598 17.4981 45.5418 6.13439 31.496 6.13439C17.4722 6.13439 6.18712 17.4871 6.13212 31.4909Z" fill="white"/>
<path d="M19.7748 26.2862C19.8628 27.7131 19.6978 29.2279 21.2268 30.2048C21.1938 29.0632 21.1058 28.0095 21.1388 26.9667C21.1608 25.902 21.4358 24.8922 22.0958 23.8604C22.2168 25.6825 21.7438 27.5814 23.5698 28.7339C23.6359 27.2411 23.6248 25.8032 23.7898 24.3763C23.9548 22.9274 24.5269 21.5992 25.6049 20.315C24.8019 23.6848 24.7579 26.813 26.8039 29.5352C25.4179 30.2377 24.0099 30.8524 22.7118 31.6427C20.6328 32.905 18.9938 34.6173 18.1908 36.9772C16.6728 41.3788 19.1478 45.2974 23.8558 45.9889C25.9239 46.2962 27.9479 46.0877 29.9499 45.5498C30.0269 45.5279 30.1039 45.484 30.2689 45.4291C29.0809 44.7156 28.5199 43.7058 28.6519 42.4215C28.7069 41.8069 28.9049 41.1593 29.1909 40.5995C29.8069 39.414 30.3789 38.2285 30.4339 36.8565C30.9949 38.1298 31.2039 39.425 30.7309 40.7751C30.6209 41.0824 30.4999 41.3898 30.4339 41.7081C30.3239 42.2349 30.4669 42.696 30.9179 43.0143C31.3469 43.3216 31.8199 43.3106 32.2599 43.0253C32.7219 42.7179 32.8649 42.2569 32.7549 41.73C32.5899 40.9288 32.3039 40.1384 32.2159 39.3372C32.0399 37.7017 32.3479 36.1101 32.7549 34.5295C32.7329 36.0113 32.8979 37.4712 33.3599 38.8762C33.6129 39.6335 33.9319 40.3799 34.2069 41.1263C34.9109 43.0033 34.5699 44.1997 32.8759 45.484C33.6239 45.6486 34.2839 45.8133 34.9439 45.923C36.6599 46.2084 38.3759 46.2523 40.0699 45.8242C44.6129 44.6937 46.6039 40.6653 44.7229 36.3516C43.6889 33.9807 41.8409 32.3671 39.6299 31.1487C38.5739 30.567 37.4519 30.106 36.3189 29.5681C38.3979 26.835 38.3759 23.7177 37.6499 20.4906C39.5749 22.9274 39.7619 25.7373 39.4099 28.701C40.0589 28.5802 40.3779 28.1631 40.6089 27.6473C41.0819 26.5606 41.0709 25.4081 41.0049 24.2555C40.9939 24.1458 40.9829 24.036 40.9719 23.9153C41.8519 24.6397 42.1049 26.4398 41.8629 30.1499C42.6989 29.8645 43.0179 29.1949 43.1609 28.4485C43.3039 27.746 43.3369 27.0216 43.4249 26.2532C43.9199 26.7911 44.0959 27.4497 44.0959 28.1083C44.0959 29.2388 44.0079 30.3694 43.9089 31.489C43.8759 31.8622 43.9089 32.1366 44.1619 32.433C45.9109 34.5405 46.8789 36.9443 46.8899 39.7213C46.8899 43.5741 45.0969 46.2523 41.6319 47.8439C39.4869 48.8318 37.2099 49.2489 34.8779 49.4355C31.3579 49.7099 27.8489 49.6441 24.3949 48.8208C22.4148 48.3488 20.5558 47.5915 19.0048 46.2304C17.2998 44.7376 16.4748 42.8167 16.3098 40.5995C16.0898 37.526 17.0248 34.8368 18.9828 32.4769C19.2578 32.1476 19.3238 31.8512 19.2468 31.4341C18.9938 30.117 18.8728 28.7888 19.1698 27.4607C19.2688 27.0326 19.4888 26.6264 19.6538 26.2203C19.6758 26.2532 19.7308 26.2752 19.7748 26.2862Z" fill="white"/>
<path d="M27.7099 39.9856C27.0088 41.4071 26.5268 42.7735 27.3922 44.3823C26.3844 44.4154 25.4642 44.5035 24.544 44.4595C23.1418 44.3933 21.7944 44.0628 20.7208 43.06C19.1762 41.6165 18.8476 38.9388 19.9759 36.9002C21.0823 34.9058 22.7803 33.5504 24.7521 32.5036C26.2968 31.6771 27.929 31.1262 29.6708 30.9278C29.7804 30.9168 29.8789 30.8837 29.9885 30.8617C29.9775 30.8066 29.9775 30.7625 29.9556 30.7515C27.5785 29.5284 26.7788 27.3576 26.5816 24.9003C26.2529 20.746 27.3594 16.8672 29.0793 13.1427C29.6051 12.0078 30.35 10.9719 31.0073 9.89206C31.084 9.77084 31.2045 9.67167 31.3031 9.5725C31.325 9.55046 31.3688 9.56148 31.4893 9.55046C31.4345 9.75982 31.3907 9.93613 31.3359 10.1235C30.35 13.3741 29.4955 16.6469 29.0354 20.0187C28.7725 21.9581 28.6849 23.8975 29.2983 25.7928C29.627 26.8176 30.1747 27.7212 30.9416 28.4815C31.325 28.8672 31.6098 28.8892 32.0261 28.4926C33.4173 27.1372 33.9979 25.4402 34.1184 23.5559C34.2718 21.1758 33.505 18.994 32.6395 16.8452C32.289 15.9857 31.8946 15.1372 31.4674 14.1565C31.7851 14.3218 32.0151 14.4099 32.2123 14.5422C33.2201 15.1593 33.9431 16.0628 34.5237 17.0656C35.9588 19.567 36.627 22.2667 36.397 25.1427C36.1998 27.5669 35.3015 29.6275 32.8477 30.8397C33.3954 30.9388 33.8226 30.9939 34.2389 31.0821C37.5363 31.7983 40.3626 33.308 42.4659 36.0297C43.5942 37.4953 43.9558 39.1592 43.5066 40.9663C43.0465 42.8176 41.7539 43.8203 39.9792 44.2721C38.6318 44.6137 37.2734 44.5917 35.904 44.3823C35.8383 44.3713 35.7726 44.3272 35.674 44.2942C36.4518 42.8176 36.0136 41.4402 35.2906 40.0297C36.2108 40.0297 37.0543 40.0628 37.8978 40.0187C38.325 39.9967 38.7632 39.8754 39.1685 39.7212C40.2859 39.3024 40.6693 38.4429 40.3188 37.2969C40.0011 36.2611 39.3438 35.4567 38.5441 34.7625C34.4909 31.1923 28.4548 31.2033 24.4235 34.7846C23.6457 35.4677 23.0103 36.2721 22.6927 37.2749C22.3312 38.4429 22.7036 39.3906 23.8758 39.7102C24.8617 39.9746 25.9133 39.9746 26.9431 40.0738C27.1731 40.0628 27.4032 40.0077 27.7099 39.9856Z" fill="white"/>
<g filter="url(#filter0_f)">
<path fill-rule="evenodd" clip-rule="evenodd" d="M101.855 40.8622C95.3945 40.8622 94.4326 37.3296 94.4326 31.9566C94.4326 26.1788 95.1252 21.4316 101.97 21.4316C107.085 21.4316 108.893 23.2715 108.893 28.1662H104.355C104.355 26.4731 104.279 24.4122 101.97 24.4122C98.933 24.4122 99.2017 28.129 99.2017 30.9995C99.2017 34.275 98.933 37.8814 101.855 37.8814C104.239 37.8814 104.47 35.6734 104.47 33.8702H109.008C108.969 36.9246 108.469 40.8622 101.855 40.8622Z" fill="white"/>
<path fill-rule="evenodd" clip-rule="evenodd" d="M119.125 31.5162H118.36C116.061 31.5162 114.946 32.4766 114.946 34.9517C114.946 36.2817 115.26 37.8698 116.792 37.8698C118.812 37.8698 119.125 35.2101 119.125 33.6217V31.5162ZM119.405 40.4927L119.335 38.3875C118.36 40.0494 116.897 40.8622 114.946 40.8622C111.742 40.8622 110.628 38.3134 110.628 35.2842C110.628 29.2258 114.459 28.7824 119.125 28.7824V27.8226C119.125 26.3815 119.195 24.2756 117.314 24.2756C115.817 24.2756 115.329 25.384 115.329 26.7507V27.0461H111.08V26.7139C111.08 22.5023 114.215 21.4316 117.524 21.4316C121.877 21.4316 123.305 23.3525 123.305 27.7852V34.287C123.305 36.3555 123.34 38.4242 123.583 40.4927H119.405Z" fill="white"/>
<path fill-rule="evenodd" clip-rule="evenodd" d="M133.091 40.8622C129.585 40.8622 126.91 39.4555 126.838 35.5693C126.838 35.4957 126.802 34.9773 126.838 34.5702H131.284V35.1623C131.32 36.6061 131.609 37.9383 133.308 37.9383C134.645 37.9383 135.332 37.0871 135.332 35.7546C135.332 33.9411 134.32 33.5709 131.681 32.1647C128.428 30.462 127.018 29.685 127.018 26.724C127.018 22.9491 129.982 21.4316 133.453 21.4316C137.826 21.4316 139.597 23.2083 139.597 27.2052H135.187C135.187 26.8721 135.223 26.5761 135.187 26.2427C135.079 25.0957 134.718 24.0964 133.272 24.0964C132.116 24.0964 131.464 24.9473 131.464 26.0577C131.464 27.7233 132.802 28.1675 135.332 29.5368C138.043 30.9804 139.778 31.8684 139.778 35.1258C139.778 39.3076 136.778 40.8622 133.091 40.8622Z" fill="white"/>
<path fill-rule="evenodd" clip-rule="evenodd" d="M151.514 31.5162H150.749C148.45 31.5162 147.335 32.4766 147.335 34.9517C147.335 36.2817 147.648 37.8698 149.181 37.8698C151.202 37.8698 151.514 35.2101 151.514 33.6217V31.5162ZM151.793 40.4927L151.723 38.3875C150.749 40.0494 149.285 40.8622 147.335 40.8622C144.131 40.8622 143.017 38.3134 143.017 35.2842C143.017 29.2258 146.847 28.7824 151.514 28.7824V27.8226C151.514 26.3815 151.585 24.2756 149.704 24.2756C148.205 24.2756 147.718 25.384 147.718 26.7507V27.0461H143.468V26.7139C143.468 22.5023 146.604 21.4316 149.913 21.4316C154.266 21.4316 155.694 23.3525 155.694 27.7852V34.287C155.694 36.3555 155.729 38.4242 155.972 40.4927H151.793Z" fill="white"/>
<path fill-rule="evenodd" clip-rule="evenodd" d="M166.002 40.8622C159.84 40.8622 159.211 37.0207 159.211 31.4427C159.211 26.4555 159.526 21.4316 166.082 21.4316C170.753 21.4316 172.166 23.3893 172.166 27.4527H169.104C169.104 25.3472 168.672 23.5372 166.043 23.5372C162.391 23.5372 162.431 27.6376 162.431 31.1469C162.431 36.5033 163.059 38.72 165.925 38.72C168.633 38.72 169.065 36.7988 169.104 34.6565H172.166C172.166 38.0179 170.95 40.8622 166.002 40.8622Z" fill="white"/>
<path fill-rule="evenodd" clip-rule="evenodd" d="M185.224 31.0729H184.469C181.486 31.0729 178.501 31.6288 178.501 35.0774C178.501 36.8946 179.181 38.6744 181.297 38.6744C184.431 38.6744 185.224 35.7077 185.224 33.2976V31.0729ZM185.452 40.5282L185.414 38.0812C184.091 39.9719 182.694 40.8622 180.314 40.8622C176.914 40.8622 175.404 38.415 175.404 35.3368C175.404 29.4413 180.39 29.0703 185.224 29.0331V28.2175C185.224 25.9921 185.224 23.5451 182.279 23.5451C180.541 23.5451 179.106 24.5095 179.106 26.3634V26.549H176.121V26.3634C176.121 22.7295 179.03 21.4316 182.392 21.4316C186.924 21.4316 188.171 23.4711 188.171 27.6612V34.5583C188.171 36.5606 188.209 38.5262 188.36 40.5282H185.452Z" fill="white"/>
<path fill-rule="evenodd" clip-rule="evenodd" d="M211.294 40.8622V28.0719C211.294 25.9971 211.181 23.7329 208.659 23.7329C205.872 23.7329 205.308 26.676 205.308 28.9019V40.8622H202.331V27.9215C202.331 26.11 202.407 23.7329 199.734 23.7329C197.323 23.7329 196.344 26.3364 196.344 29.2036V40.8622H193.369V25.1294C193.369 24.0346 193.331 22.9408 193.218 21.8466H196.193V24.337C197.022 22.7144 198.642 21.4316 200.674 21.4316C203.574 21.4316 204.403 22.9029 204.893 24.337C205.759 22.8276 207.34 21.4316 209.6 21.4316C213.216 21.4316 214.27 23.7329 214.27 27.9215V40.8622H211.294Z" fill="white"/>
<path fill-rule="evenodd" clip-rule="evenodd" d="M227.33 31.0729H226.575C223.591 31.0729 220.607 31.6288 220.607 35.0774C220.607 36.8946 221.287 38.6744 223.403 38.6744C226.537 38.6744 227.33 35.7077 227.33 33.2976V31.0729ZM227.557 40.5282L227.519 38.0812C226.197 39.9719 224.8 40.8622 222.42 40.8622C219.021 40.8622 217.51 38.415 217.51 35.3368C217.51 29.4413 222.496 29.0703 227.33 29.0331V28.2175C227.33 25.9921 227.33 23.5451 224.383 23.5451C222.647 23.5451 221.212 24.5095 221.212 26.3634V26.549H218.227V26.3634C218.227 22.7295 221.136 21.4316 224.497 21.4316C229.03 21.4316 230.276 23.4711 230.276 27.6612V34.5583C230.276 36.5606 230.314 38.5262 230.465 40.5282H227.557Z" fill="white"/>
<path fill-rule="evenodd" clip-rule="evenodd" d="M242.778 24.2291C239.789 24.2291 238.465 26.2703 238.465 29.0678V40.8622H235.437V25.2878C235.437 24.4184 235.4 22.6416 235.324 21.8098H238.276V24.305C239.298 22.4151 240.962 21.4316 243.119 21.4316H243.421V24.305C243.194 24.2671 243.005 24.2291 242.778 24.2291Z" fill="white"/>
<path fill-rule="evenodd" clip-rule="evenodd" d="M254.97 30.1868C254.97 27.3789 255.117 23.5375 251.611 23.5375C247.92 23.5375 248.03 27.6744 248.03 30.2606V32.9203C248.03 35.4324 248.067 38.72 251.5 38.72C254.748 38.72 254.97 35.5802 254.97 33.0311V30.1868ZM251.463 40.8622C245.631 40.8622 245.041 37.0207 245.041 31.2948C245.041 25.9384 245.741 21.4316 251.685 21.4316C257.553 21.4316 257.997 25.3843 257.997 31.0364C257.997 37.1686 257.074 40.8622 251.463 40.8622Z" fill="white"/>
<path fill-rule="evenodd" clip-rule="evenodd" d="M272.817 40.8622V28.7133C272.817 26.4118 272.854 23.6953 269.862 23.6953C267.058 23.6953 265.998 26.8649 265.998 29.43V40.8622H263.005V25.9971C263.005 24.6003 262.967 23.2425 262.854 21.8466H265.808V24.4499C266.642 22.8654 268.346 21.4316 270.771 21.4316C274.597 21.4316 275.809 23.771 275.809 27.3552V40.8622H272.817Z" fill="white"/>
<path d="M31.485 4.00026C46.7407 3.93425 59.3236 16.541 58.9937 32.096C58.6747 47.0349 46.2787 59.3447 30.825 58.9926C15.9103 58.6516 3.61334 46.2429 4.0093 30.7539C4.38327 15.925 16.5812 3.95626 31.485 4.00026ZM6.13212 31.4909C6.18712 45.4508 17.4062 56.8475 31.507 56.8475C45.6078 56.8475 56.8598 45.4508 56.8598 31.4909C56.8598 17.4981 45.5418 6.13439 31.496 6.13439C17.4722 6.13439 6.18712 17.4871 6.13212 31.4909Z" fill="white"/>
<path d="M19.7748 26.2862C19.8628 27.7131 19.6978 29.2279 21.2268 30.2048C21.1938 29.0632 21.1058 28.0095 21.1388 26.9667C21.1608 25.902 21.4358 24.8922 22.0958 23.8604C22.2168 25.6825 21.7438 27.5814 23.5698 28.7339C23.6359 27.2411 23.6248 25.8032 23.7898 24.3763C23.9548 22.9274 24.5269 21.5992 25.6049 20.315C24.8019 23.6848 24.7579 26.813 26.8039 29.5352C25.4179 30.2377 24.0099 30.8524 22.7118 31.6427C20.6328 32.905 18.9938 34.6173 18.1908 36.9772C16.6728 41.3788 19.1478 45.2974 23.8558 45.9889C25.9239 46.2962 27.9479 46.0877 29.9499 45.5498C30.0269 45.5279 30.1039 45.484 30.2689 45.4291C29.0809 44.7156 28.5199 43.7058 28.6519 42.4215C28.7069 41.8069 28.9049 41.1593 29.1909 40.5995C29.8069 39.414 30.3789 38.2285 30.4339 36.8565C30.9949 38.1298 31.2039 39.425 30.7309 40.7751C30.6209 41.0824 30.4999 41.3898 30.4339 41.7081C30.3239 42.2349 30.4669 42.696 30.9179 43.0143C31.3469 43.3216 31.8199 43.3106 32.2599 43.0253C32.7219 42.7179 32.8649 42.2569 32.7549 41.73C32.5899 40.9288 32.3039 40.1384 32.2159 39.3372C32.0399 37.7017 32.3479 36.1101 32.7549 34.5295C32.7329 36.0113 32.8979 37.4712 33.3599 38.8762C33.6129 39.6335 33.9319 40.3799 34.2069 41.1263C34.9109 43.0033 34.5699 44.1997 32.8759 45.484C33.6239 45.6486 34.2839 45.8133 34.9439 45.923C36.6599 46.2084 38.3759 46.2523 40.0699 45.8242C44.6129 44.6937 46.6039 40.6653 44.7229 36.3516C43.6889 33.9807 41.8409 32.3671 39.6299 31.1487C38.5739 30.567 37.4519 30.106 36.3189 29.5681C38.3979 26.835 38.3759 23.7177 37.6499 20.4906C39.5749 22.9274 39.7619 25.7373 39.4099 28.701C40.0589 28.5802 40.3779 28.1631 40.6089 27.6473C41.0819 26.5606 41.0709 25.4081 41.0049 24.2555C40.9939 24.1458 40.9829 24.036 40.9719 23.9153C41.8519 24.6397 42.1049 26.4398 41.8629 30.1499C42.6989 29.8645 43.0179 29.1949 43.1609 28.4485C43.3039 27.746 43.3369 27.0216 43.4249 26.2532C43.9199 26.7911 44.0959 27.4497 44.0959 28.1083C44.0959 29.2388 44.0079 30.3694 43.9089 31.489C43.8759 31.8622 43.9089 32.1366 44.1619 32.433C45.9109 34.5405 46.8789 36.9443 46.8899 39.7213C46.8899 43.5741 45.0969 46.2523 41.6319 47.8439C39.4869 48.8318 37.2099 49.2489 34.8779 49.4355C31.3579 49.7099 27.8489 49.6441 24.3949 48.8208C22.4148 48.3488 20.5558 47.5915 19.0048 46.2304C17.2998 44.7376 16.4748 42.8167 16.3098 40.5995C16.0898 37.526 17.0248 34.8368 18.9828 32.4769C19.2578 32.1476 19.3238 31.8512 19.2468 31.4341C18.9938 30.117 18.8728 28.7888 19.1698 27.4607C19.2688 27.0326 19.4888 26.6264 19.6538 26.2203C19.6758 26.2532 19.7308 26.2752 19.7748 26.2862Z" fill="white"/>
<path d="M27.7099 39.9856C27.0088 41.4071 26.5268 42.7735 27.3922 44.3823C26.3844 44.4154 25.4642 44.5035 24.544 44.4595C23.1418 44.3933 21.7944 44.0628 20.7208 43.06C19.1762 41.6165 18.8476 38.9388 19.9759 36.9002C21.0823 34.9058 22.7803 33.5504 24.7521 32.5036C26.2968 31.6771 27.929 31.1262 29.6708 30.9278C29.7804 30.9168 29.8789 30.8837 29.9885 30.8617C29.9775 30.8066 29.9775 30.7625 29.9556 30.7515C27.5785 29.5284 26.7788 27.3576 26.5816 24.9003C26.2529 20.746 27.3594 16.8672 29.0793 13.1427C29.6051 12.0078 30.35 10.9719 31.0073 9.89206C31.084 9.77084 31.2045 9.67167 31.3031 9.5725C31.325 9.55046 31.3688 9.56148 31.4893 9.55046C31.4345 9.75982 31.3907 9.93613 31.3359 10.1235C30.35 13.3741 29.4955 16.6469 29.0354 20.0187C28.7725 21.9581 28.6849 23.8975 29.2983 25.7928C29.627 26.8176 30.1747 27.7212 30.9416 28.4815C31.325 28.8672 31.6098 28.8892 32.0261 28.4926C33.4173 27.1372 33.9979 25.4402 34.1184 23.5559C34.2718 21.1758 33.505 18.994 32.6395 16.8452C32.289 15.9857 31.8946 15.1372 31.4674 14.1565C31.7851 14.3218 32.0151 14.4099 32.2123 14.5422C33.2201 15.1593 33.9431 16.0628 34.5237 17.0656C35.9588 19.567 36.627 22.2667 36.397 25.1427C36.1998 27.5669 35.3015 29.6275 32.8477 30.8397C33.3954 30.9388 33.8226 30.9939 34.2389 31.0821C37.5363 31.7983 40.3626 33.308 42.4659 36.0297C43.5942 37.4953 43.9558 39.1592 43.5066 40.9663C43.0465 42.8176 41.7539 43.8203 39.9792 44.2721C38.6318 44.6137 37.2734 44.5917 35.904 44.3823C35.8383 44.3713 35.7726 44.3272 35.674 44.2942C36.4518 42.8176 36.0136 41.4402 35.2906 40.0297C36.2108 40.0297 37.0543 40.0628 37.8978 40.0187C38.325 39.9967 38.7632 39.8754 39.1685 39.7212C40.2859 39.3024 40.6693 38.4429 40.3188 37.2969C40.0011 36.2611 39.3438 35.4567 38.5441 34.7625C34.4909 31.1923 28.4548 31.2033 24.4235 34.7846C23.6457 35.4677 23.0103 36.2721 22.6927 37.2749C22.3312 38.4429 22.7036 39.3906 23.8758 39.7102C24.8617 39.9746 25.9133 39.9746 26.9431 40.0738C27.1731 40.0628 27.4032 40.0077 27.7099 39.9856Z" fill="white"/>
</g>
<defs>
<filter id="filter0_f" x="0" y="0" width="279.809" height="63" filterUnits="userSpaceOnUse" color-interpolation-filters="sRGB">
<feFlood flood-opacity="0" result="BackgroundImageFix"/>
<feBlend mode="normal" in="SourceGraphic" in2="BackgroundImageFix" result="shape"/>
<feGaussianBlur stdDeviation="2" result="effect1_foregroundBlur"/>
</filter>
</defs>
</svg>
