<svg xmlns="http://www.w3.org/2000/svg" width="271" height="37" viewBox="0 0 271 37" fill="none"><path d="M234.121 25.95C234.061 26.19 233.431 27.67 231.751 27.67H225.451C224.621 27.67 224.621 27.15 224.621 25.95V19.68H230.451C231.011 19.68 231.561 19.92 231.931 20.34C232.011 20.43 232.051 20.49 232.051 20.49H232.271V17.72H232.051C232.051 17.72 232.011 17.78 231.941 17.87C231.581 18.29 231.051 18.53 230.491 18.53H224.631V12.31C224.631 11.11 224.631 10.59 225.461 10.59H231.451C233.131 10.59 233.761 12.08 233.821 12.31H234.041V9.97998H221.611V10.19C221.861 10.24 222.431 11.1 222.431 12.31V25.95C222.431 27.15 221.851 28.01 221.611 28.07V28.28H234.341V25.95H234.121Z" fill="white"></path><path d="M132.231 9.98998C136.821 9.98998 139.101 12.42 139.101 14.88C139.101 17 137.401 19.11 133.991 19.64C139.461 21.44 137.401 27.82 141.441 27.84L141.471 28.28C133.501 28.28 136.771 19.79 130.801 19.76H128.991V25.95C128.991 27.15 129.571 28.01 129.811 28.07V28.28H125.961V28.07C126.211 28.02 126.781 27.16 126.781 25.95V12.31C126.781 11.11 126.201 10.25 125.961 10.19V9.97998H132.231V9.98998ZM129.811 10.59C128.991 10.59 128.991 11.11 128.991 12.31V19.16H131.521C135.011 19.16 136.751 17.02 136.751 14.88C136.751 12.74 135.021 10.59 131.521 10.59H129.821H129.811Z" fill="white"></path><path d="M188.112 9.59009C181.482 9.59009 178.182 14.3401 178.182 19.1301C178.182 23.9201 181.482 28.6701 188.112 28.6701C194.742 28.6701 198.042 23.8901 198.042 19.1301C198.042 14.3701 194.712 9.59009 188.112 9.59009ZM195.062 22.3701C194.742 23.4401 194.272 24.3901 193.672 25.1901C192.332 26.9801 190.402 27.9301 188.112 27.9301C185.822 27.9301 183.892 26.9801 182.542 25.1901C181.932 24.3801 181.462 23.4301 181.142 22.3701C180.832 21.3401 180.672 20.2501 180.672 19.1201C180.672 17.9901 180.832 16.9101 181.142 15.8701C181.462 14.8001 181.932 13.8501 182.542 13.0501C183.892 11.2601 185.822 10.3101 188.112 10.3101C190.402 10.3101 192.322 11.2601 193.672 13.0501C194.272 13.8601 194.742 14.8101 195.062 15.8701C195.372 16.9001 195.522 17.9901 195.522 19.1201C195.522 20.2501 195.362 21.3401 195.062 22.3701Z" fill="white"></path><path d="M175.071 25.8201C175.011 25.8901 174.941 25.9501 174.881 26.0201C173.601 27.2901 171.951 27.9501 170.031 27.9501C167.741 27.9501 165.811 27.0001 164.461 25.2101C163.851 24.4001 163.381 23.4501 163.061 22.3901C162.751 21.3601 162.591 20.2701 162.591 19.1401C162.591 18.0101 162.751 16.9301 163.061 15.8901C163.381 14.8201 163.851 13.8701 164.461 13.0701C165.811 11.2801 167.741 10.3301 170.031 10.3301C170.111 10.3301 170.201 10.3301 170.281 10.3301C171.451 10.3701 172.561 10.8601 173.331 11.7401C173.801 12.2701 174.081 12.8601 174.081 13.3701H174.331L175.051 12.4301L175.121 12.3301L175.791 11.4601C174.141 10.2801 172.081 9.61011 170.041 9.61011C163.411 9.61011 160.111 14.3601 160.111 19.1501C160.111 23.9401 163.411 28.6901 170.041 28.6901C172.571 28.6901 174.221 28.0601 175.791 26.8301L175.151 25.9401L175.081 25.8401L175.071 25.8201Z" fill="white"></path><path d="M156.59 25.95C156.53 26.19 155.9 27.67 154.22 27.67H147.92C147.09 27.67 147.09 27.15 147.09 25.95V19.68H152.92C153.48 19.68 154.03 19.92 154.4 20.34C154.48 20.43 154.52 20.49 154.52 20.49H154.74V17.72H154.52C154.52 17.72 154.48 17.78 154.41 17.87C154.05 18.29 153.52 18.53 152.96 18.53H147.1V12.31C147.1 11.11 147.1 10.59 147.93 10.59H153.92C155.6 10.59 156.23 12.08 156.29 12.31H156.51V9.97998H144.08V10.19C144.33 10.24 144.9 11.1 144.9 12.31V25.95C144.9 27.15 144.32 28.01 144.08 28.07V28.28H156.81V25.95H156.59Z" fill="white"></path><path d="M215.642 9.98999V10.2C215.852 10.23 216.272 10.47 216.562 10.85L210.082 24.73L204.172 12.11C203.732 11.04 204.032 10.25 204.422 10.2V9.98999H200.102V10.2C200.512 10.25 201.282 11.32 201.752 12.34L209.202 28.28H209.892L217.402 12.24C217.872 11.22 218.612 10.25 219.002 10.2V9.98999H215.642Z" fill="white"></path><path d="M266.881 9.98998V10.2C266.881 10.2 266.911 10.2 266.921 10.2C267.361 10.23 267.601 10.74 267.351 11.11L262.281 18.78L257.671 11.87C257.181 10.93 257.201 10.25 257.561 10.2V9.98998H253.221V10.2C253.601 10.25 254.511 11.09 255.281 12.26L260.591 20.23V25.95C260.591 27.15 260.011 28.01 259.771 28.07V28.28H263.621V28.07C263.371 28.02 262.801 27.16 262.801 25.95V20.23L268.131 12.23C268.841 11.16 269.751 10.24 270.161 10.19V9.97998H266.891L266.881 9.98998Z" fill="white"></path><path d="M253.261 27.83C249.221 27.8 251.281 21.43 245.811 19.63C249.221 19.11 250.921 16.99 250.921 14.87C250.921 12.41 248.641 9.97998 244.051 9.97998H237.781V10.19C238.031 10.24 238.601 11.1 238.601 12.31V25.95C238.601 27.15 238.021 28.01 237.781 28.07V28.28H241.631V28.07C241.381 28.02 240.801 27.16 240.801 25.95V20.03H243.091C244.331 20.03 245.481 20.67 246.121 21.72C247.641 24.24 247.791 28.27 253.291 28.27L253.261 27.83ZM244.471 18.88H240.801V12.31C240.801 11.11 240.801 10.59 241.631 10.59H243.331C246.821 10.59 248.561 12.73 248.561 14.88C248.561 15.78 248.251 16.68 247.641 17.42C246.861 18.36 245.691 18.89 244.471 18.89V18.88Z" fill="white"></path><path d="M62.601 10.22C62.851 10.27 63.431 11.14 63.431 12.34V18.58H52.811V12.34C52.811 11.14 53.391 10.27 53.641 10.22V10.01H49.791V10.22C50.041 10.27 50.621 11.14 50.621 12.34V25.99C50.621 27.19 50.041 28.06 49.791 28.11V28.32H53.641V28.11C53.391 28.06 52.811 27.19 52.811 25.99V19.7H63.431V25.99C63.431 27.19 62.851 28.06 62.601 28.11V28.32H66.451V28.11C66.201 28.06 65.621 27.19 65.621 25.99V12.34C65.621 11.14 66.201 10.27 66.451 10.22V10.01H62.601V10.22Z" fill="white"></path><path d="M90.5918 10.22C90.8418 10.27 91.4218 11.14 91.4218 12.34V25.99C91.4218 27.19 90.8418 28.06 90.5918 28.11V28.32H94.4418V28.11C94.1918 28.06 93.6118 27.19 93.6118 25.99V12.34C93.6118 11.14 94.1918 10.27 94.4418 10.22V10.01H90.5918V10.22Z" fill="white"></path><path d="M113.381 27.87C109.331 27.84 111.401 21.46 105.921 19.66C109.331 19.14 111.041 17.02 111.041 14.9C111.041 12.44 108.761 10.01 104.161 10.01H97.8906V10.22C98.1406 10.27 98.7206 11.14 98.7206 12.34V25.99C98.7206 27.19 98.1406 28.06 97.8906 28.11V28.32H101.741V28.11C101.491 28.06 100.911 27.19 100.911 25.99V20.02H103.441C104.291 20.02 105.121 20.37 105.681 21.01C107.781 23.36 107.311 28.32 113.401 28.32L113.371 27.88L113.381 27.87ZM104.641 18.88H100.921V12.33C100.921 11.13 100.921 10.6 101.751 10.6H103.461C106.951 10.6 108.691 12.74 108.691 14.89C108.691 15.69 108.451 16.49 107.961 17.18C107.201 18.25 105.961 18.88 104.651 18.88H104.641Z" fill="white"></path><path d="M86.3205 25.96L78.8605 10.01H78.1705L70.4406 26.51C70.0006 27.35 69.3905 28.05 69.0605 28.11V28.32H71.3405V28.11C70.9305 28.06 70.8205 27.22 71.3405 26.1L72.2105 24.23L72.3805 24.15C72.3805 24.15 73.4805 23.67 74.8405 23.67C75.8005 23.67 76.7106 24 77.5806 24.33C78.4606 24.65 79.3606 24.98 80.3306 25C80.3706 25 80.4105 25 80.4505 25C81.7705 25 82.7006 24.67 83.1606 24.47L83.8905 26.05V26.02C84.4405 27.2 84.1406 28.06 83.7306 28.11V28.32H87.9706V28.11C87.5606 28.06 86.7905 26.96 86.3205 25.97V25.96ZM77.6206 12.63L82.6005 23.27C81.8305 23.66 81.1406 23.79 80.4806 23.79C78.5806 23.79 77.1205 22.51 74.8405 22.51C74.2405 22.51 73.6005 22.59 72.8605 22.82L77.6206 12.62V12.63Z" fill="white"></path><path d="M25.081 12.35C24.541 12.35 24.011 12.29 23.481 12.17C22.061 11.85 18.071 10.54 18.031 10.53H18.011H17.991C17.951 10.54 13.951 11.85 12.531 12.17C12.011 12.29 11.471 12.35 10.931 12.35H10.791V22.3C10.791 23.1 11.171 23.95 11.921 24.83C12.521 25.53 13.351 26.24 14.391 26.95C16.161 28.16 17.961 28.96 17.971 28.97H18.001H18.031C18.051 28.97 19.841 28.16 21.611 26.95C22.651 26.24 23.481 25.52 24.081 24.83C24.831 23.95 25.211 23.1 25.211 22.3V12.35H25.071H25.081ZM20.951 25.93C19.801 26.72 18.621 27.33 18.011 27.64C17.401 27.34 16.221 26.73 15.071 25.93C14.121 25.28 13.381 24.64 12.851 24.03C12.301 23.38 12.021 22.8 12.021 22.31V13.52C12.281 13.49 12.551 13.44 12.801 13.38C14.011 13.11 16.831 12.21 18.011 11.83C18.941 12.13 21.971 13.1 23.211 13.38C23.471 13.44 23.731 13.48 23.991 13.52V22.31C23.991 22.81 23.711 23.39 23.161 24.03C22.641 24.64 21.891 25.28 20.941 25.93H20.951Z" fill="white"></path><path d="M18.0101 26.24L17.9201 26.2C17.4401 25.96 16.4901 25.47 15.5701 24.84C14.8101 24.32 14.2001 23.8 13.7801 23.3C13.3101 22.75 13.0801 22.25 13.0801 21.8V14.66L13.2601 14.64C13.4601 14.61 13.6601 14.58 13.8601 14.53C14.8101 14.32 17.0501 13.6 17.9601 13.31L18.0201 13.29L18.0801 13.31C18.7901 13.54 21.2001 14.31 22.1801 14.53C22.3801 14.57 22.5801 14.61 22.7801 14.64L22.9601 14.66V21.8C22.9601 22.24 22.7201 22.75 22.2601 23.3C21.8301 23.8 21.2301 24.32 20.4701 24.84C19.5401 25.48 18.6001 25.97 18.1201 26.2L18.0301 26.24H18.0101ZM13.4701 15.01V21.8C13.4701 22.15 13.6701 22.56 14.0801 23.03C14.4801 23.5 15.0601 24 15.7901 24.5C16.6401 25.09 17.5101 25.55 18.0101 25.79C18.5001 25.54 19.3701 25.08 20.2201 24.5C20.9601 24 21.5301 23.5 21.9301 23.03C22.3301 22.56 22.5401 22.14 22.5401 21.8V15.01C22.3901 14.99 22.2301 14.96 22.0801 14.92C21.1101 14.7 18.7901 13.96 18.0101 13.71C17.0501 14.02 14.8801 14.71 13.9301 14.92C13.7801 14.95 13.6201 14.98 13.4701 15.01Z" fill="white"></path><path d="M21.5211 20.79H21.4111C21.0611 20.79 20.9511 20.53 20.8011 20.07C20.6611 19.67 20.5011 19.19 20.0311 18.89C20.2911 18.81 20.5011 18.67 20.6711 18.5C20.8911 18.27 21.0111 17.98 21.0111 17.68C21.0111 17.32 20.8611 16.99 20.5711 16.75C20.2511 16.48 19.8111 16.34 19.2711 16.33H17.6611V16.59L17.7411 16.61C17.7411 16.61 17.8611 16.8 17.8611 17.02V18.46C17.7811 18.43 17.7111 18.4 17.6511 18.37C17.3711 18.24 17.0411 18.09 16.4911 18.08C16.2011 18.08 15.9011 18.1 15.6011 18.16V16.99C15.6111 16.77 15.7011 16.62 15.7311 16.58L15.8111 16.56V16.29H14.6611V16.56L14.7311 16.58C14.7611 16.62 14.8511 16.77 14.8511 16.99L14.8211 20.39C14.8211 20.61 14.7311 20.76 14.7011 20.8L14.6211 20.82V21.09H15.7711V20.82L15.7011 20.8C15.6711 20.76 15.5811 20.61 15.5811 20.39V18.6C15.8811 18.54 16.1811 18.51 16.4811 18.51C16.9511 18.51 17.2011 18.63 17.4811 18.76C17.5911 18.81 17.7111 18.87 17.8411 18.91V20.4C17.8311 20.62 17.7411 20.77 17.7111 20.81L17.6311 20.83V21.1H18.7811V20.83L18.7111 20.81C18.6811 20.77 18.5911 20.62 18.5911 20.4V19C18.8511 19 19.0411 18.99 19.0911 19C19.5111 19.08 19.6611 19.44 19.8211 19.86C20.0411 20.42 20.3211 21.11 21.4111 21.12H21.5411L21.5211 20.77V20.79ZM18.6111 18.64C18.6111 18.64 18.6111 18.64 18.6011 18.64V16.9C18.6111 16.83 18.6211 16.78 18.6411 16.73C18.6411 16.73 18.6611 16.73 18.7011 16.73C18.9911 16.73 19.3211 16.71 19.5911 16.82C19.7811 16.89 19.9411 17.02 20.0511 17.18C20.1511 17.33 20.2011 17.5 20.2011 17.66C20.2011 17.82 20.1411 17.98 20.0411 18.14C19.9511 18.29 19.8411 18.4 19.7211 18.47C19.6211 18.52 19.5111 18.55 19.4111 18.57C19.1011 18.64 18.8411 18.66 18.6111 18.65V18.64Z" fill="white"></path><path d="M33.1901 11.02C33.5201 11.02 33.8001 10.79 33.8001 10.49C33.8001 10.19 33.5301 9.96001 33.2001 9.95001C32.8701 9.94001 32.6001 10.18 32.5901 10.48C32.5801 10.78 32.8601 11.01 33.1901 11.02Z" fill="white"></path><path d="M34.8596 23.8201C34.5396 23.8201 34.2896 24.0401 34.2796 24.3201C34.2696 24.6001 34.5296 24.8301 34.8496 24.8301C35.1696 24.8301 35.4196 24.6101 35.4296 24.3301C35.4396 24.0501 35.1796 23.8201 34.8596 23.8201Z" fill="white"></path><path d="M27.63 30.34C27.63 30.13 27.44 29.95 27.19 29.95C26.94 29.95 26.75 30.12 26.75 30.33C26.75 30.54 26.94 30.7199 27.19 30.7199C27.44 30.7199 27.63 30.55 27.63 30.34Z" fill="white"></path><path d="M29.2301 30.34C29.2301 30.18 29.0901 30.05 28.9101 30.05C28.7301 30.05 28.5801 30.18 28.5801 30.34C28.5801 30.5 28.7201 30.63 28.9001 30.63C29.0801 30.63 29.2301 30.5 29.2301 30.34Z" fill="white"></path><path d="M27.6198 31.3899C27.4198 31.3899 27.2598 31.5299 27.2598 31.6999C27.2598 31.8699 27.4198 32.0199 27.6198 32.0199C27.8198 32.0199 27.9798 31.8799 27.9798 31.7099C27.9798 31.5399 27.8198 31.3899 27.6198 31.3899Z" fill="white"></path><path d="M29.0307 31.3201C28.8607 31.3201 28.7207 31.4401 28.7207 31.5901C28.7207 31.7401 28.8607 31.8701 29.0307 31.8701C29.2007 31.8701 29.3407 31.7501 29.3407 31.6001C29.3407 31.4501 29.2007 31.3201 29.0307 31.3201Z" fill="white"></path><path d="M2.75062 11.02C2.42062 11.02 2.14062 10.79 2.14062 10.49C2.14062 10.19 2.41062 9.96001 2.74062 9.95001C3.07062 9.94001 3.34062 10.18 3.35062 10.48C3.36062 10.78 3.08062 11.01 2.75062 11.02Z" fill="white"></path><path d="M1.07028 23.8201C1.39028 23.8201 1.64028 24.0401 1.65028 24.3201C1.66028 24.6001 1.40028 24.8301 1.08028 24.8301C0.760279 24.8301 0.510279 24.6101 0.500279 24.3301C0.490279 24.0501 0.750279 23.8201 1.07028 23.8201Z" fill="white"></path><path d="M8.29883 30.34C8.29883 30.13 8.48883 29.95 8.73883 29.95C8.98883 29.95 9.17883 30.12 9.17883 30.33C9.17883 30.54 8.98883 30.7199 8.73883 30.7199C8.48883 30.7199 8.29883 30.55 8.29883 30.34Z" fill="white"></path><path d="M6.70898 30.34C6.70898 30.18 6.84898 30.05 7.02898 30.05C7.20898 30.05 7.35898 30.18 7.35898 30.34C7.35898 30.5 7.21898 30.63 7.03898 30.63C6.85898 30.63 6.70898 30.5 6.70898 30.34Z" fill="white"></path><path d="M8.30922 31.3899C8.50922 31.3899 8.66922 31.5299 8.66922 31.6999C8.66922 31.8699 8.50922 32.0199 8.30922 32.0199C8.10922 32.0199 7.94922 31.8799 7.94922 31.7099C7.94922 31.5399 8.10922 31.3899 8.30922 31.3899Z" fill="white"></path><path d="M6.90961 31.3201C7.07961 31.3201 7.21961 31.4401 7.21961 31.5901C7.21961 31.7401 7.07961 31.8701 6.90961 31.8701C6.73961 31.8701 6.59961 31.7501 6.59961 31.6001C6.59961 31.4501 6.73961 31.3201 6.90961 31.3201Z" fill="white"></path><path d="M7.05078 26.2999H7.29078L7.09078 26.1899C6.17078 25.6299 5.18078 24.9499 5.01078 23.9099C4.90078 23.2099 5.23078 22.2299 6.23078 21.5999L6.36078 21.5199L6.21078 21.4899C5.66078 21.3799 5.24078 21.4599 4.93078 21.7499C5.03078 21.0899 5.13078 20.6399 5.69078 20.1099C6.10078 19.7299 6.70078 19.4699 7.13078 19.7499L7.16078 19.7699L7.19078 19.7499C7.32078 19.6799 7.40078 19.5499 7.44078 19.3899C7.48078 19.2099 7.44078 19.0199 7.33078 18.8799C7.15078 18.6499 6.80078 18.5299 6.46078 18.5999C6.20078 18.6499 5.95078 18.7999 5.67078 19.0499C5.18078 19.4899 4.79078 20.0699 4.52078 20.7499C4.41078 21.0399 3.97078 20.8999 4.05078 20.5999V20.5799C4.24078 19.8199 4.64078 19.0799 5.23078 18.3599C5.66078 17.8399 6.06078 17.5099 6.50078 17.3199C7.04078 17.0799 7.64078 17.0999 8.06078 17.3699L8.12078 17.4099L8.14078 17.3399C8.24078 17.0499 8.20078 16.7199 8.05078 16.4299C7.91078 16.1699 7.69078 15.9699 7.44078 15.8799C8.09078 15.2199 8.41078 14.2999 8.68078 13.4099V13.3899C8.77078 13.1199 8.85078 12.8299 9.01078 12.5999C9.18078 12.3499 9.43078 12.1899 9.68078 12.1699C9.68078 12.1699 9.69078 12.1699 9.70078 12.1699H9.82078L9.75078 12.0699C9.54078 11.8099 9.19078 11.6599 8.82078 11.6899C8.48078 11.7099 8.17078 11.8699 7.99078 12.1199C7.60078 11.5999 7.02078 11.2299 6.34078 11.0599C5.63078 10.8899 4.91078 10.9699 4.32078 11.2799C4.02078 11.4399 3.62078 11.7199 3.39078 12.1699C3.18078 12.5899 3.17078 13.0799 3.36078 13.4499L3.42078 13.5599L3.47078 13.4499C3.75078 12.8099 4.50078 12.4299 5.18078 12.5699C5.81078 12.7099 6.31078 13.2899 6.37078 13.9299C5.91078 13.4999 5.21078 13.1499 4.50078 13.3299C4.11078 13.4299 3.77078 13.7399 3.61078 14.1399C3.47078 14.4699 3.49078 14.7999 3.65078 15.0699L3.71078 15.1799L3.75078 15.0599C3.85078 14.7699 4.22078 14.6099 4.54078 14.7099C4.83078 14.7999 5.06078 15.0999 5.11078 15.4399C5.15078 15.7299 5.08078 16.0499 4.90078 16.3699C4.23078 16.2899 3.68078 16.8799 3.39078 17.4699C2.99078 18.2699 2.82078 19.1399 2.79078 20.0299C2.77078 20.4999 2.09078 20.5399 2.03078 20.0799C2.03078 20.0799 2.03078 20.0699 2.03078 20.0599C1.92078 19.2999 2.03078 18.5299 2.35078 17.8299L2.39078 17.7499H2.30078C1.95078 17.7299 1.58078 17.9299 1.34078 18.2599C1.16078 18.5199 1.04078 18.8599 0.990777 19.2999C0.850777 20.4899 1.19078 21.7699 1.95078 22.8999C2.56078 23.8099 3.44078 24.6199 4.57078 25.3199C3.28078 25.3799 2.39078 25.4699 1.16078 26.0299C0.710777 26.2399 0.390777 26.4999 0.200777 26.8099C-0.0192228 27.1599 -0.0392228 27.6099 0.130777 27.9899C0.230777 28.2099 0.390777 28.3999 0.580777 28.5399C0.810777 28.7099 1.10078 28.7899 1.39078 28.7899C1.54078 28.7899 1.68078 28.7699 1.82078 28.7199L1.98078 28.6599L1.82078 28.5999C1.43078 28.4599 1.17078 27.9899 1.24078 27.5399C1.31078 27.1399 1.61078 26.7799 2.02078 26.6099C2.10078 26.8199 2.34078 27.0299 2.69078 27.0299C2.96078 27.0299 3.20078 26.9399 3.45078 26.8499C3.47078 26.8499 3.50078 26.8299 3.52078 26.8199C4.64078 26.3899 5.87078 26.1999 7.07078 26.2699L7.05078 26.2999Z" fill="white"></path><path d="M29.41 26.7901C28.73 26.7001 27.92 26.8301 27.2 26.9401C26.63 27.0301 26.09 27.11 25.7 27.08C26.17 26.75 26.6 26.5901 27.02 26.4401C27.58 26.2301 28.11 26.03 28.7 25.48C29.55 24.69 29.29 24.1101 29.19 23.9501C29.03 23.6901 28.73 23.5601 28.44 23.6101C28.75 23.1201 29.12 22.35 28.76 21.88C28.58 21.65 28.28 21.5801 28.04 21.6201C28.27 20.6201 27.84 19.3801 27.08 18.8701L26.98 18.8V18.92C27.12 21.75 26.62 23.93 25.45 25.59C24.44 27.0201 23.12 27.8201 21.94 28.5301C21.61 28.7301 21.3 28.9201 21.01 29.1101C19.71 29.9201 18.36 31.0201 17.98 31.34L17.96 31.3601L17.94 31.34C17.56 31.0201 16.21 29.9101 14.91 29.1101C14.62 28.9201 14.31 28.7301 13.98 28.5301C12.81 27.8201 11.48 27.0201 10.47 25.59C9.3 23.94 8.8 21.75 8.94 18.92V18.8L8.85 18.8701C8.09 19.3801 7.66 20.6201 7.89 21.6201C7.65 21.5801 7.35 21.65 7.17 21.88C6.81 22.35 7.18 23.1201 7.49 23.6101C7.2 23.5701 6.9 23.7001 6.74 23.9501C6.64 24.1101 6.39 24.69 7.23 25.48C7.82 26.03 8.35 26.2301 8.91 26.4401C9.33 26.6 9.76 26.76 10.23 27.08C9.84 27.11 9.3 27.0301 8.73 26.9401C8.01 26.8301 7.2 26.7001 6.52 26.7901C5.73 26.8901 5.25 27.2701 5.05 27.9401L5 28.1L5.14 28.01C5.5 27.76 5.8 27.82 6.11 27.88C6.32 27.92 6.53 27.96 6.76 27.91C6.72 28.12 6.76 28.32 6.87 28.48C6.96 28.61 7.14 28.76 7.49 28.7701C7.79 29.0701 8.15 28.9 8.54 28.72C8.84 28.58 9.17 28.42 9.54 28.43C9.55 28.5601 9.6 28.67 9.7 28.76C9.92 28.95 10.36 29 11.1 28.92C11.59 28.86 12.06 28.88 12.48 28.9401C12.7 28.97 12.68 29.29 12.46 29.3C12.46 29.3 12.45 29.3 12.44 29.3C11.69 29.32 11.19 29.5 10.97 29.85C10.84 30.05 10.86 30.2001 10.9 30.2901C10.95 30.4101 11.06 30.4801 11.17 30.5201C10.93 30.7401 10.86 30.93 10.79 31.1101C10.71 31.3301 10.63 31.54 10.27 31.8L10.14 31.89L10.29 31.91C10.39 31.92 10.48 31.93 10.57 31.93C11.4 31.93 11.86 31.49 12.31 31.06C12.76 30.62 13.23 30.17 14.12 30.17C14.58 30.17 15.07 30.33 15.44 30.58C15.74 30.79 16.09 31.16 16.09 31.74C16.09 32.9 15.17 33.14 14.82 33.14C14.69 33.14 14.44 33.0701 14.3 32.9001C14.22 32.8001 14.19 32.69 14.2 32.55C14.29 32.57 14.37 32.59 14.46 32.59C14.97 32.59 15.38 32.2301 15.39 31.7801C15.39 31.4801 15.28 31.24 15.06 31.06C14.87 30.91 14.6 30.82 14.31 30.82C13.94 30.82 13.57 30.95 13.3 31.17C13.08 31.35 12.81 31.69 12.81 32.25C12.81 32.69 12.99 33.0601 13.34 33.3301C13.66 33.5701 14.08 33.7 14.54 33.71C14.54 33.71 14.55 33.71 14.56 33.71C15.27 33.71 16.02 33.39 16.39 32.69C16.57 32.36 17.07 32.54 16.99 32.91C16.99 32.91 16.99 32.91 16.99 32.92C16.96 33.01 16.92 33.11 16.88 33.19C16.61 33.71 16.07 34.32 14.99 34.32C14.99 34.32 14.98 34.32 14.97 34.32H14.88L14.92 34.4001C15.03 34.6501 15.27 34.8301 15.6 34.9001C15.98 34.9801 16.42 34.9001 16.68 34.7201C16.99 35.6901 17.81 36.2201 17.9 36.2701L17.99 36.3301L18.08 36.2701C18.17 36.2101 18.99 35.68 19.3 34.7201C19.57 34.9101 20 34.9801 20.38 34.9001C20.7 34.8301 20.94 34.6501 21.06 34.4001L21.1 34.32H21.01C21.01 34.32 21 34.32 20.99 34.32C19.91 34.32 19.37 33.71 19.1 33.19C19.05 33.1 19.02 33.01 18.99 32.92C18.99 32.92 18.99 32.92 18.99 32.91C18.91 32.54 19.42 32.36 19.59 32.69C19.96 33.38 20.71 33.71 21.42 33.71C21.42 33.71 21.43 33.71 21.44 33.71C21.9 33.71 22.33 33.5701 22.64 33.3301C22.99 33.0601 23.18 32.69 23.17 32.25C23.17 31.69 22.9 31.36 22.68 31.17C22.41 30.9401 22.04 30.82 21.67 30.82C21.38 30.82 21.11 30.91 20.92 31.06C20.7 31.23 20.59 31.4801 20.59 31.7801C20.59 32.2301 21.01 32.59 21.52 32.59C21.6 32.59 21.69 32.58 21.78 32.55C21.79 32.69 21.76 32.8001 21.68 32.9001C21.54 33.0701 21.28 33.14 21.16 33.14C20.81 33.14 19.9 32.9 19.89 31.74C19.89 31.16 20.24 30.79 20.54 30.58C20.91 30.32 21.4 30.17 21.86 30.17C22.75 30.17 23.22 30.62 23.67 31.06C24.12 31.49 24.57 31.93 25.41 31.93C25.5 31.93 25.59 31.93 25.69 31.91L25.84 31.89L25.71 31.8C25.35 31.54 25.27 31.3301 25.19 31.1101C25.12 30.9201 25.05 30.7301 24.81 30.5201C24.92 30.4801 25.03 30.4101 25.08 30.2901C25.12 30.2001 25.14 30.05 25.01 29.85C24.78 29.5 24.29 29.32 23.54 29.3C23.54 29.3 23.53 29.3 23.52 29.3C23.3 29.3 23.28 28.97 23.5 28.9401C23.92 28.88 24.39 28.86 24.88 28.92C25.62 29.01 26.06 28.96 26.28 28.76C26.37 28.68 26.43 28.5701 26.44 28.43C26.81 28.43 27.14 28.58 27.44 28.72C27.82 28.9 28.19 29.0801 28.49 28.7701C28.84 28.7701 29.02 28.61 29.11 28.48C29.22 28.32 29.26 28.12 29.22 27.91C29.45 27.96 29.66 27.92 29.87 27.88C30.19 27.82 30.48 27.7701 30.84 28.01L30.98 28.1L30.93 27.9401C30.73 27.2701 30.25 26.8901 29.46 26.7901H29.41Z" fill="white"></path><path d="M35.7509 26.8199C35.5609 26.5099 35.2409 26.2499 34.7909 26.0399C33.5709 25.4699 32.6709 25.3899 31.3809 25.3299C32.5109 24.6299 33.3909 23.8099 34.0009 22.9099C34.7609 21.7799 35.1009 20.4999 34.9609 19.3099C34.9109 18.8699 34.7909 18.5299 34.6109 18.2699C34.3709 17.9299 34.0109 17.7399 33.6509 17.7499H33.5609L33.6009 17.8299C33.9209 18.5299 34.0309 19.2999 33.9209 20.0599C33.9209 20.0599 33.9209 20.0699 33.9209 20.0799C33.8509 20.5399 33.1709 20.4999 33.1609 20.0299C33.1309 19.1399 32.9609 18.2699 32.5609 17.4699C32.2609 16.8799 31.7109 16.2899 31.0509 16.3699C30.8709 16.0599 30.8009 15.7299 30.8409 15.4399C30.8909 15.0999 31.1209 14.7999 31.4109 14.7099C31.7309 14.6099 32.1009 14.7699 32.2009 15.0599L32.2409 15.1799L32.3009 15.0699C32.4609 14.7999 32.4809 14.4699 32.3409 14.1399C32.1809 13.7399 31.8409 13.4299 31.4509 13.3299C30.7409 13.1399 30.0409 13.4999 29.5809 13.9299C29.6409 13.2899 30.1409 12.7099 30.7709 12.5699C31.4509 12.4199 32.2009 12.8099 32.4809 13.4499L32.5309 13.5599L32.5909 13.4499C32.7809 13.0799 32.7709 12.5899 32.5609 12.1699C32.3309 11.7199 31.9309 11.4299 31.6309 11.2799C31.0309 10.9699 30.3109 10.8899 29.6109 11.0599C28.9309 11.2299 28.3509 11.5999 27.9609 12.1199C27.7809 11.8699 27.4809 11.7199 27.1309 11.6899C26.7509 11.6699 26.4009 11.8099 26.2009 12.0699L26.1309 12.1599H26.2509C26.2509 12.1599 26.2609 12.1599 26.2709 12.1599C26.5109 12.1699 26.7609 12.3299 26.9409 12.5899C27.1009 12.8199 27.1809 13.1099 27.2709 13.3799V13.3999C27.5409 14.2899 27.8609 15.2099 28.5109 15.8699C28.2609 15.9699 28.0409 16.1599 27.9009 16.4199C27.7409 16.7099 27.7109 17.0499 27.8109 17.3299L27.8309 17.3999L27.8909 17.3599C28.3109 17.0899 28.9109 17.0699 29.4509 17.3099C29.8809 17.4999 30.2809 17.8299 30.7209 18.3499C31.3109 19.0599 31.7109 19.8099 31.9009 20.5699V20.5899C31.9809 20.8899 31.5409 21.0299 31.4309 20.7399C31.1609 20.0599 30.7709 19.4799 30.2809 19.0399C30.0009 18.7899 29.7509 18.6399 29.4909 18.5899C29.1509 18.5199 28.8009 18.6299 28.6209 18.8699C28.5109 19.0099 28.4709 19.1999 28.5109 19.3799C28.5409 19.5399 28.6309 19.6599 28.7609 19.7399L28.7909 19.7599L28.8209 19.7399C29.2509 19.4599 29.8509 19.7099 30.2609 20.0999C30.8209 20.6299 30.9209 21.0799 31.0209 21.7399C30.7109 21.4499 30.2809 21.3699 29.7409 21.4799L29.5909 21.5099L29.7209 21.5899C30.7209 22.2199 31.0509 23.1999 30.9409 23.8999C30.7709 24.9299 29.7809 25.6199 28.8609 26.1799L28.6609 26.2999H28.9009C30.1009 26.2199 31.3309 26.4099 32.4509 26.8399C32.4709 26.8399 32.5009 26.8599 32.5209 26.8699C32.7609 26.9599 33.0109 27.0599 33.2809 27.0499C33.6309 27.0499 33.8709 26.8399 33.9509 26.6299C34.3609 26.8099 34.6609 27.1699 34.7309 27.5599C34.8009 27.9999 34.5409 28.4799 34.1509 28.6199L33.9909 28.6799L34.1509 28.7399C34.2909 28.7899 34.4409 28.8099 34.5809 28.8099C34.8709 28.8099 35.1509 28.7199 35.3909 28.5599C35.5809 28.4199 35.7409 28.2299 35.8409 28.0099C36.0109 27.6299 35.9909 27.1799 35.7709 26.8299L35.7509 26.8199Z" fill="white"></path><path d="M16.831 7.07003C16.811 7.49003 16.721 7.94003 16.431 8.25003C16.271 8.43003 16.001 8.56003 15.781 8.45003C15.601 8.36003 15.531 8.13003 15.531 7.93003C15.531 7.73003 15.591 7.53003 15.601 7.33003C15.621 6.96003 15.441 6.57003 15.131 6.37003C14.811 6.17003 14.371 6.18003 14.081 6.43003C13.851 6.63003 13.741 6.98003 13.831 7.27003C13.921 7.57003 14.191 7.80003 14.501 7.84003C14.181 8.10003 13.771 8.25003 13.361 8.28003C13.151 8.29003 12.941 8.28003 12.741 8.35003C12.551 8.43003 12.381 8.64003 12.451 8.83003C11.981 8.91003 11.471 8.77003 11.101 8.45003C10.941 8.89003 11.141 9.43003 11.541 9.67003C10.881 9.84003 10.181 9.97003 9.52097 9.81003C8.86097 9.65003 8.24097 9.13003 8.16097 8.45003C7.84097 8.66003 7.60097 9.01003 7.53097 9.39003C7.24097 9.14003 6.98097 8.83003 6.89097 8.45003C6.80097 8.07003 6.90097 7.64003 7.22097 7.41003C7.53097 7.18003 8.04097 7.25003 8.22097 7.60003C8.74097 7.36003 8.87097 6.60003 8.54097 6.14003C8.21097 5.68003 7.52097 5.55003 7.00097 5.79003C6.48097 6.02003 6.13097 6.56003 6.03097 7.12003C5.92097 7.71003 6.06097 8.32003 6.30097 8.87003C6.33097 8.93003 6.32097 9.00003 6.27097 9.04003C6.22097 9.09003 6.17097 9.07003 6.13097 9.04003C5.58097 8.79003 5.10097 8.34003 4.88097 7.78003C4.66097 7.21003 4.72097 6.53003 5.11097 6.06003C4.58097 5.93003 3.99097 6.14003 3.62097 6.53003C3.25097 6.93003 3.09097 7.50003 3.15097 8.04003C3.20097 8.47003 3.39097 8.88003 3.68097 9.21003C4.06097 9.63003 4.58097 9.88003 5.10097 10.08C6.70097 10.7 8.44097 10.96 10.141 10.76C11.681 10.58 13.181 10.03 14.431 9.12003C14.631 8.98003 14.891 8.96003 15.101 9.08003C15.291 9.19003 15.541 9.30003 15.751 9.35003C16.051 9.42003 16.461 9.39003 16.731 9.23003C17.381 8.83003 17.761 7.88003 17.811 7.16003C17.861 6.41003 16.851 6.51003 16.821 7.06003L16.831 7.07003Z" fill="white"></path><path d="M19.14 7.07003C19.16 7.49003 19.25 7.94003 19.54 8.25003C19.7 8.43003 19.97 8.56003 20.19 8.45003C20.37 8.36003 20.44 8.13003 20.44 7.93003C20.44 7.73003 20.38 7.53003 20.37 7.33003C20.35 6.96003 20.53 6.57003 20.84 6.37003C21.16 6.17003 21.6 6.18003 21.89 6.43003C22.12 6.63003 22.23 6.98003 22.14 7.27003C22.05 7.57003 21.78 7.80003 21.47 7.84003C21.79 8.10003 22.2 8.25003 22.61 8.28003C22.82 8.29003 23.03 8.28003 23.23 8.35003C23.42 8.43003 23.59 8.64003 23.52 8.83003C23.99 8.91003 24.5 8.77003 24.87 8.45003C25.03 8.89003 24.83 9.43003 24.43 9.67003C25.09 9.84003 25.79 9.97003 26.45 9.81003C27.11 9.65003 27.73 9.13003 27.81 8.45003C28.13 8.66003 28.37 9.01003 28.44 9.39003C28.73 9.14003 28.99 8.83003 29.08 8.45003C29.17 8.07003 29.07 7.64003 28.75 7.41003C28.44 7.18003 27.93 7.25003 27.75 7.60003C27.23 7.36003 27.1 6.60003 27.43 6.14003C27.76 5.68003 28.45 5.55003 28.97 5.79003C29.49 6.02003 29.84 6.56003 29.94 7.12003C30.05 7.71003 29.91 8.32003 29.67 8.87003C29.64 8.93003 29.65 9.00003 29.7 9.04003C29.75 9.09003 29.8 9.07003 29.84 9.04003C30.39 8.79003 30.87 8.34003 31.09 7.78003C31.31 7.21003 31.25 6.53003 30.86 6.06003C31.39 5.93003 31.98 6.14003 32.35 6.53003C32.72 6.93003 32.88 7.50003 32.82 8.04003C32.77 8.47003 32.58 8.88003 32.29 9.21003C31.91 9.63003 31.39 9.88003 30.87 10.08C29.27 10.7 27.53 10.96 25.83 10.76C24.29 10.58 22.79 10.03 21.54 9.12003C21.34 8.98003 21.08 8.96003 20.87 9.08003C20.68 9.19003 20.43 9.30003 20.22 9.35003C19.92 9.42003 19.51 9.39003 19.24 9.23003C18.59 8.83003 18.21 7.88003 18.16 7.16003C18.11 6.41003 19.12 6.51003 19.15 7.06003L19.14 7.07003Z" fill="white"></path><path d="M23.3407 1.81003C23.3407 1.81003 23.2807 1.82003 23.2507 1.83003C23.1907 1.84003 23.1307 1.86003 23.0707 1.87003C22.9507 1.90003 22.8207 1.93003 22.7007 1.96003C22.4207 2.02003 22.1507 2.09003 21.8707 2.15003C21.7307 2.18003 21.5907 2.21003 21.4507 2.25003C21.3807 2.27003 21.3107 2.28003 21.2407 2.30003C21.2207 2.30003 21.2007 2.90003 21.1707 3.18003C21.1407 3.44003 21.4707 3.58003 21.6307 3.38003C21.7507 3.23003 21.8407 3.06003 21.8807 2.88003C21.9007 2.81003 22.0007 2.82003 22.0007 2.89003C22.0107 3.10003 21.9807 3.31003 21.8907 3.50003C21.7507 3.81003 21.5107 4.07003 21.2107 4.25003C20.8407 4.47003 20.3807 4.57003 19.9607 4.47003C19.5407 4.37003 19.1607 4.07003 19.0107 3.66003C18.8607 3.25003 18.9707 2.75003 19.3007 2.47003C19.4807 2.32003 19.7207 2.23003 19.9507 2.28003C20.0407 2.30003 20.1307 2.34003 20.2007 2.40003C20.2507 2.44003 20.2007 2.51003 20.1507 2.50003C20.0907 2.48003 20.0207 2.48003 19.9407 2.49003C19.7807 2.52003 19.6507 2.64003 19.6107 2.79003C19.5807 2.89003 19.5907 2.98003 19.6107 3.07003C19.6507 3.19003 19.7507 3.28003 19.8607 3.33003C20.1807 3.46003 20.5707 3.20003 20.6407 2.86003C20.7107 2.52003 20.5007 2.17003 20.2007 2.00003C19.8507 1.80003 19.4107 1.83003 19.0607 2.02003C18.7107 2.21003 18.4707 2.56003 18.3507 2.94003C18.2607 2.80003 18.1607 2.63003 18.2107 2.46003C18.2507 2.34003 18.3607 2.25003 18.4407 2.16003C18.7007 1.86003 18.7207 1.40003 18.5907 1.03003C18.4607 0.650029 18.2007 0.330029 17.9507 0.0300293C17.7007 0.340029 17.4407 0.660029 17.3107 1.03003C17.1807 1.41003 17.2007 1.86003 17.4607 2.16003C17.5407 2.26003 17.6507 2.34003 17.6907 2.46003C17.7407 2.63003 17.6407 2.79003 17.5507 2.94003C17.4307 2.56003 17.1907 2.21003 16.8407 2.02003C16.4907 1.83003 16.0407 1.80003 15.7007 2.00003C15.4007 2.17003 15.2007 2.52003 15.2607 2.86003C15.3307 3.20003 15.7207 3.45003 16.0407 3.33003C16.1607 3.28003 16.2607 3.19003 16.2907 3.07003C16.3207 2.99003 16.3307 2.89003 16.2907 2.79003C16.2407 2.64003 16.1107 2.52003 15.9607 2.49003C15.8907 2.48003 15.8207 2.49003 15.7507 2.50003C15.6907 2.52003 15.6507 2.44003 15.7007 2.40003C15.7707 2.34003 15.8607 2.30003 15.9507 2.28003C16.1807 2.23003 16.4207 2.32003 16.6007 2.47003C16.9307 2.75003 17.0407 3.25003 16.8907 3.66003C16.7407 4.07003 16.3607 4.37003 15.9407 4.47003C15.5207 4.57003 15.0607 4.47003 14.6907 4.25003C14.4007 4.07003 14.1507 3.82003 14.0107 3.50003C13.9307 3.31003 13.8907 3.10003 13.9007 2.89003C13.9007 2.82003 14.0007 2.81003 14.0207 2.88003C14.0707 3.06003 14.1607 3.23003 14.2707 3.38003C14.4307 3.58003 14.7607 3.44003 14.7307 3.18003C14.7007 2.90003 14.6807 2.30003 14.6607 2.30003C14.5907 2.28003 14.5207 2.27003 14.4507 2.25003C14.3107 2.22003 14.1707 2.19003 14.0307 2.15003C13.7507 2.09003 13.4807 2.02003 13.2007 1.96003C13.0807 1.93003 12.9507 1.90003 12.8307 1.87003C12.7707 1.86003 12.7107 1.84003 12.6507 1.83003C12.6207 1.83003 12.5907 1.82003 12.5607 1.81003C12.5307 1.81003 12.5007 1.79003 12.4707 1.79003C12.4707 1.81003 12.5107 1.85003 12.5207 1.87003C12.5407 1.90003 12.5607 1.93003 12.5807 1.95003C12.6207 2.01003 12.6507 2.06003 12.6907 2.12003C12.7607 2.23003 12.8407 2.35003 12.9107 2.46003C13.0507 2.69003 13.1907 2.92003 13.3307 3.15003C13.4707 3.38003 13.6007 3.61003 13.7307 3.85003C13.8607 4.08003 13.9907 4.32003 14.1207 4.56003C14.2507 4.80003 14.3707 5.04003 14.4907 5.28003C14.5607 5.41003 14.6207 5.55003 14.6807 5.68003C15.6907 5.18003 16.8107 4.92003 17.9407 4.93003C19.0607 4.93003 20.1907 5.19003 21.2007 5.68003C21.2607 5.55003 21.3307 5.41003 21.3907 5.28003C21.5107 5.04003 21.6307 4.80003 21.7607 4.56003C21.8907 4.32003 22.0107 4.09003 22.1507 3.85003C22.2807 3.62003 22.4207 3.38003 22.5507 3.15003C22.6907 2.92003 22.8307 2.69003 22.9707 2.46003C23.0407 2.35003 23.1107 2.23003 23.1907 2.12003C23.2307 2.06003 23.2607 2.01003 23.3007 1.95003C23.3207 1.92003 23.3407 1.89003 23.3607 1.87003C23.3707 1.85003 23.4107 1.81003 23.4107 1.79003C23.3807 1.79003 23.3507 1.80003 23.3207 1.81003H23.3407Z" fill="white"></path></svg>