<svg xmlns="http://www.w3.org/2000/svg" xmlns:xlink="http://www.w3.org/1999/xlink" id="Layer_1" x="0px" y="0px" width="118.4px" height="20px" viewBox="120.905 20.416 118.4 20" xml:space="preserve"><g> <polygon points="156.56,22.738 156.56,38.193 154.246,38.193 154.246,26.111 154.207,26.111 151.774,38.193 150.519,38.193 148.126,26.111 148.087,26.111 148.087,38.193 145.772,38.193 145.772,22.738 149.264,22.738 151.147,31.761 151.186,31.761 153.069,22.738 "></polygon> <polygon points="161.111,38.193 161.111,22.738 168.211,22.738 168.211,25.052 163.779,25.052 163.779,29.014 167.191,29.014 167.191,31.328 163.779,31.328 163.779,35.879 168.525,35.879 168.525,38.193 "></polygon> <path d="M176.802,22.738h-0.118h-3.923v15.456h3.923h0.118c2.667-0.039,4.08-1.568,4.08-4.668v-6.12 C180.882,24.267,179.469,22.777,176.802,22.738 M178.214,33.839c0,1.412-0.353,2.001-1.412,2.118 c-0.118,0.04-0.314,0.04-0.471,0.04h-0.942V24.935h0.942h0.471c1.059,0.157,1.412,0.745,1.412,2.157V33.839z"></path> <rect x="185.51" y="22.738" width="2.668" height="15.456"></rect> <path d="M198.378,22.738h-1.648h-1.647l-2.863,15.456h2.589l0.471-3.412h1.451h1.452l0.471,3.412h2.55L198.378,22.738z M196.729,32.467h-1.098l1.06-6.63h0.038l1.061,6.63H196.729z"></path> <polygon points="211.951,22.642 210.127,31.385 208.302,22.642 204.636,22.642 204.636,38.289 207.143,38.289 207.143,26.891 209.4,38.289 210.852,38.289 213.11,26.891 213.11,38.289 215.616,38.289 215.616,22.642 "></polygon> <path d="M225.289,22.642h-3.454l-2.899,15.647h2.788l0.471-3.413h2.736l0.471,3.413h2.748L225.289,22.642z M224.51,32.37h-1.895 l0.947-6.158L224.51,32.37z"></path> <path d="M130.925,20.416c-5.514,0-10,4.486-10,10s4.486,10,10,10c5.514,0,10-4.486,10-10S136.439,20.416,130.925,20.416 M139.167,30.416c0,4.544-3.697,8.242-8.242,8.242s-8.242-3.698-8.242-8.242c0-4.544,3.697-8.242,8.242-8.242 S139.167,25.872,139.167,30.416"></path> <polygon points="129.49,25.808 128.251,27.047 131.696,30.492 128.251,33.937 129.49,35.176 134.182,30.492 "></polygon> <polygon points="236.335,30.112 239.037,22.642 236.201,22.642 234.797,27.385 233.204,22.642 230.405,22.642 233.266,30.113 230.171,38.289 233.007,38.289 234.801,32.796 236.555,38.289 239.351,38.289 "></polygon></g></svg>